<?xml version="1.0" encoding="UTF-8"?>
<svg id="Ebene_2" data-name="Ebene 2" xmlns="http://www.w3.org/2000/svg" viewBox="0 0 595 545">
  <defs>
    <style>
      .cls-1 {
        fill: #fff;
        stroke-width: 0px;
      }
    </style>
  </defs>
  <g id="Mitte_-_Logo" data-name="Mitte - Logo">
    <path id="Mitte_-_L" data-name="Mitte - L" class="cls-1" d="M588.37,466.65l-89.34-162.37h-113.81l77.46,140.8H174.01l-54.81,99.92h423.03c40.1,0,65.5-43.14,46.13-78.35"/>
    <path id="Mitte_-_F" data-name="Mitte - F" class="cls-1" d="M398.43,404.21l-54.78-99.92h-133.67l22.28-40.87h249.28l-54.98-99.92h-253.13L6.63,466.65c-19.37,35.21,6.03,78.35,46.13,78.35h24.66l77.42-140.79h243.59Z"/>
    <path id="Mitte_-_Spitze" data-name="Mitte - Spitze" class="cls-1" d="M162.01,40.87c9.03,0,16.36,7.34,16.36,16.4v65.34h233.26V57.28c0-9.06,7.32-16.4,16.36-16.4,10.52,0,19.05-8.55,19.05-19.1v-1.34c0-11.28-9.13-20.44-20.38-20.44H163.34c-11.26,0-20.38,9.15-20.38,20.44v1.34c0,10.55,8.53,19.1,19.05,19.1"/>
  </g>
</svg>